<svg xmlns="http://www.w3.org/2000/svg" width="24" height="24" viewBox="0 0 24 24" fill="none">
  <rect width="24" height="24" fill= "#fff"/>
  <path d="M16.3635 19.7926C16.3607 19.7933 16.3667 19.7918 16.3635 19.7926C16.3635 18.6286 16.3635 17.4847 16.3635 16.3404C16.3635 15.8842 16.2877 15.4386 16.0894 15.0092C15.9416 14.6893 15.7298 14.403 15.3906 14.1462C15.8784 14.076 16.336 14.019 16.7886 13.9434C17.4743 13.829 18.1359 13.6534 18.7635 13.397C19.9668 12.9056 20.8662 12.1718 21.3592 11.151C22.0463 9.72802 22.2177 8.26611 21.6927 6.77889C21.4953 6.21958 21.1459 5.71955 20.6813 5.27656C20.5763 5.17685 20.5591 5.10019 20.6107 4.97216C21.0005 4.00687 20.8286 3.06575 20.403 2.13709C20.3505 2.02266 20.253 2.01511 20.1364 2.01322C19.6081 2.00491 19.1096 2.11897 18.6209 2.26475C17.9008 2.47963 17.2285 2.77307 16.5832 3.1073C16.4406 3.18132 16.3165 3.20549 16.1409 3.1681C14.1502 2.74513 12.1371 2.7387 10.1334 3.05933C9.42765 3.17225 8.85621 3.14657 8.24017 2.81196C7.4959 2.40749 6.65315 2.14125 5.75139 2.03211C5.60411 2.01436 5.49075 2.00189 5.40109 2L5.12466 2.08007C5.0559 2.14691 5.00712 2.26134 4.93604 2.44639C4.60711 3.30368 4.5862 4.16738 4.87703 5.03259C4.91978 5.15986 4.89841 5.24333 4.79527 5.34227C3.91627 6.18369 3.50836 7.16599 3.48839 8.26346C3.47259 9.13623 3.57573 9.99615 3.91534 10.8281C4.59317 12.4898 6.06498 13.443 8.08779 13.8992C8.72334 14.0427 9.37051 14.1368 10.079 14.1995C9.88202 14.3747 9.71152 14.5235 9.58794 14.7006C9.39467 14.9778 9.27062 15.275 9.22695 15.5896C9.2093 15.7173 9.14426 15.7747 9.0072 15.82C7.34445 16.3699 5.87357 15.9911 4.91141 14.7633C4.45519 14.1814 3.83497 13.7833 2.98756 13.6466C2.72461 13.6043 2.46072 13.5983 2.20474 13.6742C1.98081 13.7406 1.94085 13.8558 2.08348 14.0122C2.18569 14.1243 2.31763 14.2142 2.46258 14.2863C3.29698 14.7006 3.82289 15.3219 4.19131 16.033C4.75578 17.1241 5.79924 17.6324 7.19904 17.7261C7.8332 17.7684 8.46178 17.7143 9.09547 17.5973C9.09547 18.3069 9.07968 19.0947 9.07968 19.793C9.07968 19.793 9.12242 22 12.6937 22C16.265 22 16.3635 19.7926 16.3635 19.7926Z" fill="#000"/>
</svg>